<?xml version="1.0" encoding="UTF-8"?>
<svg width="30px" height="20px" viewBox="0 0 30 20" version="1.1" xmlns="http://www.w3.org/2000/svg" xmlns:xlink="http://www.w3.org/1999/xlink">
    <title>“</title>
    <g id="Code-Test" stroke="none" stroke-width="1" fill="none" fill-rule="evenodd">
        <g id="Mobile" transform="translate(-15.000000, -2030.000000)" fill="#F56A75">
            <g id="Testimonial" transform="translate(15.000000, 1988.000000)">
                <path d="M9.91071429,42 L9.91071429,43.5891473 C7.6658051,44.7777837 6.05867832,46.0180814 5.08928571,47.3100775 C4.11989311,48.6020736 3.63520408,50.0103283 3.63520408,51.5348837 C3.63520408,52.439281 3.76275383,53.0594298 4.01785714,53.3953488 C4.24745013,53.7571078 4.52805957,53.9379845 4.85969388,53.9379845 C5.19132819,53.9379845 5.6377523,53.8410862 6.19897959,53.6472868 C6.76020689,53.4534874 7.27040587,53.3565891 7.72959184,53.3565891 C8.77551543,53.3565891 9.68749611,53.7506421 10.4655612,54.5387597 C11.2436263,55.3268773 11.6326531,56.2894 11.6326531,57.4263566 C11.6326531,58.6666729 11.160719,59.7325537 10.2168367,60.624031 C9.27295446,61.5155083 8.09949681,61.9612403 6.69642857,61.9612403 C4.98723635,61.9612403 3.44388444,61.2118938 2.06632653,59.7131783 C0.688768622,58.2144628 0,56.366936 0,54.1705426 C0,51.5865504 0.848205804,49.1770138 2.54464286,46.9418605 C4.24107991,44.7067072 6.6964125,43.0594368 9.91071429,42 Z M28.1632653,42.1162791 L28.1632653,43.5891473 C25.5867218,45.0878628 23.8903102,46.4315186 23.0739796,47.620155 C22.257649,48.8087915 21.8494898,50.2041264 21.8494898,51.8062016 C21.8494898,52.5297194 21.9897945,53.0723496 22.2704082,53.4341085 C22.5510218,53.7958674 22.8443862,53.9767442 23.1505102,53.9767442 C23.4311239,53.9767442 23.852038,53.873386 24.4132653,53.6666667 C24.9744926,53.4599473 25.5357115,53.3565891 26.0969388,53.3565891 C27.1428624,53.3565891 28.054843,53.7377223 28.8329082,54.5 C29.6109733,55.2622777 30,56.1989609 30,57.3100775 C30,58.5762337 29.5089335,59.674414 28.5267857,60.6046512 C27.5446379,61.5348884 26.3392929,62 24.9107143,62 C23.2270324,62 21.7091904,61.2635733 20.3571429,59.7906977 C19.0050953,58.3178221 18.3290816,56.4832151 18.3290816,54.2868217 C18.3290816,51.5736298 19.1836649,49.0994944 20.8928571,46.8643411 C22.6020494,44.6291878 25.0254945,43.0465163 28.1632653,42.1162791 Z" id="“"></path>
            </g>
        </g>
    </g>
</svg>