<?xml version="1.0" ?><svg viewBox="0 0 260.01 293.87" xmlns="http://www.w3.org/2000/svg"><defs><style>.cls-1{fill:#696;}.cls-2{fill:#9c9;}.cls-3{fill:#ffa161;}.cls-4{fill:#fff;opacity:0.4;}</style></defs><title/><g data-name="Layer 2" id="Layer_2"><g id="ICON_6"><path class="cls-1" d="M162.08,6.34c-27.32,11.23-31.44,32.94-31.44,32.94v.07s17.22,7.11,44.54-4.12S206.62,2.29,206.62,2.29V2.22S189.4-4.89,162.08,6.34Z"/><path class="cls-1" d="M104.28,15.88C126.36,25,129.69,42.5,129.69,42.5v.06s-13.92,5.75-36-3.33S68.27,12.61,68.27,12.61v-.06S82.19,6.8,104.28,15.88Z"/><ellipse class="cls-2" cx="130" cy="49.31" rx="7.44" ry="34.67"/><path class="cls-3" d="M188.41,280.87a132.45,132.45,0,0,0,31.76-21.34A124.19,124.19,0,0,0,244,230.24a115.62,115.62,0,0,0,2.72-112.36,123.08,123.08,0,0,0-22.83-30.65A129.07,129.07,0,0,0,208.5,74.28q-4.17-3-8.56-5.62c-2.18-1.31-4.25-2.65-6.53-3.85a134.45,134.45,0,0,0-34.54-12.48,139,139,0,0,0-38.52-2.69,136.57,136.57,0,0,0-36.79,7.7A132,132,0,0,0,50.95,74.69a127.12,127.12,0,0,0-27.49,27A118.94,118.94,0,0,0,5.78,135.52a115.51,115.51,0,0,0,1.7,77,120,120,0,0,0,19.15,33.12A129.46,129.46,0,0,0,54.51,271a131.73,131.73,0,0,0,34.72,16.74,138.67,138.67,0,0,0,81,.16A133.8,133.8,0,0,0,188.41,280.87Z"/><path class="cls-4" d="M240.81,171.43A114.09,114.09,0,0,0,204.63,88a114.26,114.26,0,0,1-6.86,152.71v20.11A114.29,114.29,0,0,0,240.81,171.43Z"/></g></g></svg>